<?xml version="1.0" encoding="utf-8"?>
<!-- Generator: Adobe Illustrator 15.0.0, SVG Export Plug-In . SVG Version: 6.00 Build 0)  -->
<!DOCTYPE svg PUBLIC "-//W3C//DTD SVG 1.1//EN" "http://www.w3.org/Graphics/SVG/1.1/DTD/svg11.dtd">
<svg version="1.1" xmlns="http://www.w3.org/2000/svg" xmlns:xlink="http://www.w3.org/1999/xlink" x="0px" y="0px"
	 width="162.73px" height="33.609px" viewBox="0 0 162.73 33.609" enable-background="new 0 0 162.73 33.609" xml:space="preserve">
<g id="Layer_1_copy">
</g>
<g id="Layer_1">
	<g>
		<defs>
			<path id="SVGID_1_" d="M162.73,0v33.609h-4.805V19.219h-19.242v14.391h-4.805V0h4.805v14.414h19.242V0H162.73z M94.393,19.219
				c-0.656,0-1.277-0.129-1.863-0.387s-1.098-0.602-1.535-1.031s-0.781-0.938-1.031-1.523s-0.375-1.207-0.375-1.863V4.805
				c0-0.656,0.125-1.277,0.375-1.863s0.594-1.094,1.031-1.523s0.949-0.773,1.535-1.031S93.736,0,94.393,0h16.312
				c0.656,0,1.277,0.129,1.863,0.387s1.098,0.602,1.535,1.031s0.781,0.938,1.031,1.523s0.375,1.207,0.375,1.863v4.336h-4.805V4.805
				H94.393v9.609h16.312c0.656,0,1.277,0.125,1.863,0.375s1.098,0.594,1.535,1.031s0.781,0.949,1.031,1.535s0.375,1.207,0.375,1.863
				v9.586c0,0.656-0.125,1.277-0.375,1.863s-0.594,1.098-1.031,1.535s-0.949,0.781-1.535,1.031s-1.207,0.375-1.863,0.375H93.924
				c-0.656,0-1.277-0.125-1.863-0.375s-1.098-0.594-1.535-1.031s-0.781-0.949-1.031-1.535s-0.375-1.207-0.375-1.863v-4.312h4.805
				v4.312h16.781v-9.586H94.393z M52.986,21.07H64.47L58.751,6.258L52.986,21.07z M61.142,0l12.961,33.609h-4.805l-2.977-7.734
				H51.158l-2.977,7.734h-4.805L56.337,0H61.142z M17.086,28.805c2.234,0,3.953-0.602,5.156-1.805s1.805-2.922,1.805-5.156V11.766
				c0-1.094-0.156-2.07-0.469-2.93s-0.77-1.59-1.371-2.191s-1.332-1.059-2.191-1.371s-1.836-0.469-2.93-0.469H4.805v24H17.086z
				 M0,33.609V0h17.086c1.797,0,3.418,0.277,4.863,0.832s2.68,1.344,3.703,2.367s1.812,2.262,2.367,3.715s0.832,3.07,0.832,4.852
				v10.078c0,1.781-0.277,3.398-0.832,4.852s-1.344,2.691-2.367,3.715s-2.258,1.812-3.703,2.367s-3.066,0.832-4.863,0.832H0z"/>
		</defs>
		<clipPath id="SVGID_2_">
			<use xlink:href="#SVGID_1_"  overflow="visible"/>
		</clipPath>
		<g display="none" clip-path="url(#SVGID_2_)">
			<defs>
				<path id="SVGID_3_" d="M162.73,0v33.609h-4.805V19.219h-19.242v14.391h-4.805V0h4.805v14.414h19.242V0H162.73z M94.393,19.219
					c-0.656,0-1.277-0.129-1.863-0.387s-1.098-0.602-1.535-1.031s-0.781-0.938-1.031-1.523s-0.375-1.207-0.375-1.863V4.805
					c0-0.656,0.125-1.277,0.375-1.863s0.594-1.094,1.031-1.523s0.949-0.773,1.535-1.031S93.736,0,94.393,0h16.312
					c0.656,0,1.277,0.129,1.863,0.387s1.098,0.602,1.535,1.031s0.781,0.938,1.031,1.523s0.375,1.207,0.375,1.863v4.336h-4.805V4.805
					H94.393v9.609h16.312c0.656,0,1.277,0.125,1.863,0.375s1.098,0.594,1.535,1.031s0.781,0.949,1.031,1.535
					s0.375,1.207,0.375,1.863v9.586c0,0.656-0.125,1.277-0.375,1.863s-0.594,1.098-1.031,1.535s-0.949,0.781-1.535,1.031
					s-1.207,0.375-1.863,0.375H93.924c-0.656,0-1.277-0.125-1.863-0.375s-1.098-0.594-1.535-1.031s-0.781-0.949-1.031-1.535
					s-0.375-1.207-0.375-1.863v-4.312h4.805v4.312h16.781v-9.586H94.393z M52.986,21.07H64.47L58.751,6.258L52.986,21.07z M61.142,0
					l12.961,33.609h-4.805l-2.977-7.734H51.158l-2.977,7.734h-4.805L56.337,0H61.142z M17.086,28.805
					c2.234,0,3.953-0.602,5.156-1.805s1.805-2.922,1.805-5.156V11.766c0-1.094-0.156-2.07-0.469-2.93s-0.77-1.59-1.371-2.191
					s-1.332-1.059-2.191-1.371s-1.836-0.469-2.93-0.469H4.805v24H17.086z M0,33.609V0h17.086c1.797,0,3.418,0.277,4.863,0.832
					s2.68,1.344,3.703,2.367s1.812,2.262,2.367,3.715s0.832,3.07,0.832,4.852v10.078c0,1.781-0.277,3.398-0.832,4.852
					s-1.344,2.691-2.367,3.715s-2.258,1.812-3.703,2.367s-3.066,0.832-4.863,0.832H0z"/>
			</defs>
			<clipPath id="SVGID_4_" display="inline">
				<use xlink:href="#SVGID_3_"  overflow="visible"/>
			</clipPath>
			<g display="inline" clip-path="url(#SVGID_4_)" enable-background="new    ">
				<g>
					<defs>
						<rect id="SVGID_5_" width="163" height="34"/>
					</defs>
					<clipPath id="SVGID_6_">
						<use xlink:href="#SVGID_5_"  overflow="visible"/>
					</clipPath>
					<g clip-path="url(#SVGID_6_)">
						<defs>
							<rect id="SVGID_7_" width="163" height="34"/>
						</defs>
						<clipPath id="SVGID_8_">
							<use xlink:href="#SVGID_7_"  overflow="visible"/>
						</clipPath>
						
							<rect x="-5" y="-5" clip-path="url(#SVGID_8_)" fill-rule="evenodd" clip-rule="evenodd" fill="#010101" width="172.73" height="43.609"/>
					</g>
				</g>
			</g>
		</g>
		<g display="none" clip-path="url(#SVGID_2_)">
			<defs>
				<path id="SVGID_9_" d="M162.73,0v33.609h-4.805V19.219h-19.242v14.391h-4.805V0h4.805v14.414h19.242V0H162.73z M94.393,19.219
					c-0.656,0-1.277-0.129-1.863-0.387s-1.098-0.602-1.535-1.031s-0.781-0.938-1.031-1.523s-0.375-1.207-0.375-1.863V4.805
					c0-0.656,0.125-1.277,0.375-1.863s0.594-1.094,1.031-1.523s0.949-0.773,1.535-1.031S93.736,0,94.393,0h16.312
					c0.656,0,1.277,0.129,1.863,0.387s1.098,0.602,1.535,1.031s0.781,0.938,1.031,1.523s0.375,1.207,0.375,1.863v4.336h-4.805V4.805
					H94.393v9.609h16.312c0.656,0,1.277,0.125,1.863,0.375s1.098,0.594,1.535,1.031s0.781,0.949,1.031,1.535
					s0.375,1.207,0.375,1.863v9.586c0,0.656-0.125,1.277-0.375,1.863s-0.594,1.098-1.031,1.535s-0.949,0.781-1.535,1.031
					s-1.207,0.375-1.863,0.375H93.924c-0.656,0-1.277-0.125-1.863-0.375s-1.098-0.594-1.535-1.031s-0.781-0.949-1.031-1.535
					s-0.375-1.207-0.375-1.863v-4.312h4.805v4.312h16.781v-9.586H94.393z M52.986,21.07H64.47L58.751,6.258L52.986,21.07z M61.142,0
					l12.961,33.609h-4.805l-2.977-7.734H51.158l-2.977,7.734h-4.805L56.337,0H61.142z M17.086,28.805
					c2.234,0,3.953-0.602,5.156-1.805s1.805-2.922,1.805-5.156V11.766c0-1.094-0.156-2.07-0.469-2.93s-0.77-1.59-1.371-2.191
					s-1.332-1.059-2.191-1.371s-1.836-0.469-2.93-0.469H4.805v24H17.086z M0,33.609V0h17.086c1.797,0,3.418,0.277,4.863,0.832
					s2.68,1.344,3.703,2.367s1.812,2.262,2.367,3.715s0.832,3.07,0.832,4.852v10.078c0,1.781-0.277,3.398-0.832,4.852
					s-1.344,2.691-2.367,3.715s-2.258,1.812-3.703,2.367s-3.066,0.832-4.863,0.832H0z"/>
			</defs>
			<clipPath id="SVGID_10_" display="inline">
				<use xlink:href="#SVGID_9_"  overflow="visible"/>
			</clipPath>
			<g display="inline" clip-path="url(#SVGID_10_)" enable-background="new    ">
				<g>
					<defs>
						<rect id="SVGID_11_" width="163" height="34"/>
					</defs>
					<clipPath id="SVGID_12_">
						<use xlink:href="#SVGID_11_"  overflow="visible"/>
					</clipPath>
					<g clip-path="url(#SVGID_12_)">
						<defs>
							<rect id="SVGID_13_" width="163" height="34"/>
						</defs>
						<clipPath id="SVGID_14_">
							<use xlink:href="#SVGID_13_"  overflow="visible"/>
						</clipPath>
						
							<rect x="-5" y="-5" clip-path="url(#SVGID_14_)" fill-rule="evenodd" clip-rule="evenodd" fill="#010101" width="172.73" height="43.609"/>
					</g>
				</g>
			</g>
		</g>
		<g display="none" clip-path="url(#SVGID_2_)">
			<defs>
				<path id="SVGID_15_" d="M162.73,0v33.609h-4.805V19.219h-19.242v14.391h-4.805V0h4.805v14.414h19.242V0H162.73z M94.393,19.219
					c-0.656,0-1.277-0.129-1.863-0.387s-1.098-0.602-1.535-1.031s-0.781-0.938-1.031-1.523s-0.375-1.207-0.375-1.863V4.805
					c0-0.656,0.125-1.277,0.375-1.863s0.594-1.094,1.031-1.523s0.949-0.773,1.535-1.031S93.736,0,94.393,0h16.312
					c0.656,0,1.277,0.129,1.863,0.387s1.098,0.602,1.535,1.031s0.781,0.938,1.031,1.523s0.375,1.207,0.375,1.863v4.336h-4.805V4.805
					H94.393v9.609h16.312c0.656,0,1.277,0.125,1.863,0.375s1.098,0.594,1.535,1.031s0.781,0.949,1.031,1.535
					s0.375,1.207,0.375,1.863v9.586c0,0.656-0.125,1.277-0.375,1.863s-0.594,1.098-1.031,1.535s-0.949,0.781-1.535,1.031
					s-1.207,0.375-1.863,0.375H93.924c-0.656,0-1.277-0.125-1.863-0.375s-1.098-0.594-1.535-1.031s-0.781-0.949-1.031-1.535
					s-0.375-1.207-0.375-1.863v-4.312h4.805v4.312h16.781v-9.586H94.393z M52.986,21.07H64.47L58.751,6.258L52.986,21.07z M61.142,0
					l12.961,33.609h-4.805l-2.977-7.734H51.158l-2.977,7.734h-4.805L56.337,0H61.142z M17.086,28.805
					c2.234,0,3.953-0.602,5.156-1.805s1.805-2.922,1.805-5.156V11.766c0-1.094-0.156-2.07-0.469-2.93s-0.77-1.59-1.371-2.191
					s-1.332-1.059-2.191-1.371s-1.836-0.469-2.93-0.469H4.805v24H17.086z M0,33.609V0h17.086c1.797,0,3.418,0.277,4.863,0.832
					s2.68,1.344,3.703,2.367s1.812,2.262,2.367,3.715s0.832,3.07,0.832,4.852v10.078c0,1.781-0.277,3.398-0.832,4.852
					s-1.344,2.691-2.367,3.715s-2.258,1.812-3.703,2.367s-3.066,0.832-4.863,0.832H0z"/>
			</defs>
			<clipPath id="SVGID_16_" display="inline">
				<use xlink:href="#SVGID_15_"  overflow="visible"/>
			</clipPath>
			<g display="inline" clip-path="url(#SVGID_16_)" enable-background="new    ">
				<g>
					<defs>
						<rect id="SVGID_17_" width="163" height="34"/>
					</defs>
					<clipPath id="SVGID_18_">
						<use xlink:href="#SVGID_17_"  overflow="visible"/>
					</clipPath>
					<g clip-path="url(#SVGID_18_)">
						<defs>
							<rect id="SVGID_19_" width="163" height="34"/>
						</defs>
						<clipPath id="SVGID_20_">
							<use xlink:href="#SVGID_19_"  overflow="visible"/>
						</clipPath>
						
							<rect x="-5" y="-5" clip-path="url(#SVGID_20_)" fill-rule="evenodd" clip-rule="evenodd" fill="#010101" width="172.73" height="43.609"/>
					</g>
				</g>
			</g>
		</g>
		<g display="none" clip-path="url(#SVGID_2_)" enable-background="new    ">
			<g display="inline">
				<defs>
					<rect id="SVGID_21_" width="163" height="34"/>
				</defs>
				<clipPath id="SVGID_22_">
					<use xlink:href="#SVGID_21_"  overflow="visible"/>
				</clipPath>
				<g clip-path="url(#SVGID_22_)">
					<defs>
						<rect id="SVGID_23_" width="163" height="34"/>
					</defs>
					<clipPath id="SVGID_24_">
						<use xlink:href="#SVGID_23_"  overflow="visible"/>
					</clipPath>
					
						<rect x="-5" y="-5" clip-path="url(#SVGID_24_)" fill-rule="evenodd" clip-rule="evenodd" fill="#010101" width="172.73" height="43.609"/>
				</g>
			</g>
		</g>
		<linearGradient id="SVGID_25_" gradientUnits="userSpaceOnUse" x1="-31.4126" y1="15.8887" x2="207.4766" y2="15.8887">
			<stop  offset="0" style="stop-color:#14A085"/>
			<stop  offset="0.1558" style="stop-color:#1F937F;stop-opacity:0.9922"/>
			<stop  offset="0.4563" style="stop-color:#2B7670;stop-opacity:0.9772"/>
			<stop  offset="0.8675" style="stop-color:#2E4C58;stop-opacity:0.9566"/>
			<stop  offset="1" style="stop-color:#2C3E50;stop-opacity:0.95"/>
		</linearGradient>
		<ellipse clip-path="url(#SVGID_2_)" fill="url(#SVGID_25_)" cx="88.032" cy="15.889" rx="119.445" ry="57.54"/>
	</g>
</g>
</svg>
